# xmcd
# Copyright (c) 1998 CDDB Inc.
#
# Track frame offsets:
#	150
#	15374
#	33081
#	50545
#	67658
#	84447
#	102505
#	119429
#	136083
#	153169
#	167772
#	180593
#	192739
#	205263
#	219515
#	236574
#
# Disc length: 3341 seconds
#
# Revision: 0
# Processed by: cddbd v1.4PL0 Copyright (c) Steve Scherf et al.
# Submitted via: audiograbber 1.70
#
DISCID=ce0d0b10
DTITLE=Matro Grosso and Mathias - As Melhores de Matro Grosso and Mathias
DYEAR=1900
DGENRE=
TTITLE0=Ponto de Chegada
TTITLE1=Na Hora do Adeus
TTITLE2=Idas e Voltas
TTITLE3=Foi Pensando em Você
TTITLE4=Noites de Devaneio
TTITLE5=De Igual pra Igual
TTITLE6=Ansiedade
TTITLE7=Volte Amor
TTITLE8=24 Horas de Amor
TTITLE9=Porque?
TTITLE10=Falso Juramento
TTITLE11=Pedaço de Minha Vida
TTITLE12=Em Mulher Não Se Bate
TTITLE13=Objeto de Prazer
TTITLE14=Me Perdoa
TTITLE15=Cabelo Loiro
EXTD=Música Sertaneja Raiz!
EXTT0=
EXTT1=
EXTT2=
EXTT3=
EXTT4=
EXTT5=
EXTT6=
EXTT7=
EXTT8=
EXTT9=
EXTT10=
EXTT11=
EXTT12=
EXTT13=
EXTT14=
EXTT15=
PLAYORDER=
